<svg width="25" height="25" viewBox="0 0 25 25" fill="none" xmlns="http://www.w3.org/2000/svg">
<g clip-path="url(#clip0)">
<path d="M0.800674 25C0.592987 25 0.389377 24.9184 0.23895 24.7669C0.0417447 24.5697 -0.0378361 24.2834 0.0300988 24.0132L1.52253 18.0229C1.55747 17.8829 1.62967 17.7546 1.73138 17.6529L18.532 0.852277C19.6683 -0.284174 21.5181 -0.284174 22.6545 0.852277L24.1534 2.35111C25.2898 3.48756 25.2898 5.33733 24.1534 6.47359L7.35289 23.2742C7.25099 23.3759 7.12269 23.4491 6.98294 23.4831L0.992638 24.9755C0.928973 24.9926 0.865309 25 0.800674 25V25ZM3.01088 18.6207L1.89151 23.1131L6.38395 21.9938L23.0297 5.34897C23.546 4.83267 23.546 3.99106 23.0297 3.47475L21.5309 1.97592C21.0136 1.45864 20.1718 1.45961 19.6567 1.97592L3.01088 18.6207ZM6.79097 22.7125H6.80165H6.79097Z" fill="black"/>
<path d="M21.0062 9.29231C20.8026 9.29231 20.599 9.21486 20.4443 9.05919L15.9466 4.5625C15.6359 4.25174 15.6359 3.74825 15.9466 3.43769C16.2572 3.12713 16.7607 3.12713 17.0712 3.43769L21.5691 7.93555C21.8797 8.24611 21.8797 8.74961 21.5691 9.06016C21.4121 9.21486 21.2087 9.29231 21.0062 9.29231Z" fill="black"/>
<path d="M6.79096 23.5075C6.58735 23.5075 6.38394 23.4301 6.22924 23.2742L1.73138 18.7766C1.42082 18.4658 1.42082 17.9623 1.73138 17.6518C2.04194 17.3412 2.54543 17.3412 2.85618 17.6518L7.35385 22.1496C7.66441 22.4602 7.66441 22.9637 7.35385 23.2742C7.19799 23.4301 6.99457 23.5075 6.79096 23.5075V23.5075Z" fill="black"/>
</g>
<defs>
<clipPath id="clip0">
<rect width="25" height="25" fill="white"/>
</clipPath>
</defs>
</svg>
