<svg width="25" height="25" viewBox="0 0 25 25" fill="none" xmlns="http://www.w3.org/2000/svg">
<path d="M12.5 0C5.59121 0 0 5.59067 0 12.5C0 19.4088 5.59067 25 12.5 25C19.4088 25 25 19.4093 25 12.5C25 5.59121 19.4093 0 12.5 0ZM7.66338 2.57583C7.28511 3.60605 6.96758 4.65332 6.71128 5.71523C5.96221 5.48765 5.22534 5.21475 4.50215 4.89678C5.41787 3.93472 6.48496 3.15137 7.66338 2.57583ZM3.53213 6.06641C4.46821 6.4999 5.42622 6.8623 6.40332 7.15298C6.11982 8.66631 5.95771 10.2066 5.91924 11.7676H1.48936C1.62427 9.69526 2.33047 7.73389 3.53213 6.06641ZM3.53213 18.9336C2.33047 17.2661 1.62427 15.3047 1.48936 13.2324H5.91924C5.95771 14.7934 6.11982 16.3337 6.40332 17.847C5.42622 18.1377 4.46826 18.5001 3.53213 18.9336ZM4.50215 20.1033C5.22534 19.7853 5.96216 19.5124 6.71128 19.2848C6.96763 20.3467 7.28511 21.394 7.66338 22.4242C6.48555 21.849 5.41836 21.0658 4.50215 20.1033ZM11.7676 23.5106C10.9983 23.4606 10.2443 23.3322 9.51489 23.1286C8.93555 21.7555 8.47314 20.3477 8.12827 18.9116C9.31567 18.6461 10.5306 18.4909 11.7676 18.447V23.5106ZM11.7676 16.9813C10.4273 17.0256 9.11108 17.1916 7.82466 17.4781C7.56909 16.0851 7.42183 14.6681 7.38457 13.2324H11.7676V16.9813ZM11.7676 11.7676H7.38457C7.42183 10.3319 7.56909 8.91489 7.82466 7.52188C9.11108 7.8084 10.4273 7.97441 11.7676 8.0187V11.7676ZM11.7676 6.55298C10.5306 6.50908 9.31567 6.35386 8.12827 6.08838C8.47314 4.6523 8.93555 3.24448 9.51489 1.87144C10.2443 1.66782 10.9983 1.5394 11.7676 1.48936V6.55298ZM21.4679 6.06641C22.6695 7.73389 23.3757 9.69526 23.5106 11.7676H19.0808C19.0423 10.2066 18.8802 8.66631 18.5967 7.15298C19.5738 6.8623 20.5317 6.4999 21.4679 6.06641ZM20.4979 4.89673C19.7747 5.21475 19.0378 5.48765 18.2887 5.71519C18.0324 4.65327 17.7149 3.60601 17.3366 2.57578C18.5145 3.15103 19.5816 3.93423 20.4979 4.89673ZM13.2324 1.48936C14.0017 1.5394 14.7557 1.66782 15.4851 1.87144C16.0645 3.24448 16.5269 4.6523 16.8717 6.08838C15.6843 6.35386 14.4694 6.50908 13.2324 6.55298V1.48936ZM13.2324 8.0187C14.5727 7.97441 15.8889 7.8084 17.1753 7.52188C17.4309 8.91489 17.5782 10.3319 17.6154 11.7676H13.2324V8.0187ZM15.4851 23.1285C14.7557 23.3322 14.0017 23.4606 13.2324 23.5106V18.447C14.4694 18.4909 15.6843 18.6461 16.8717 18.9116C16.5268 20.3477 16.0645 21.7555 15.4851 23.1285ZM13.2324 16.9813V13.2324H17.6154C17.5782 14.6681 17.4309 16.0851 17.1753 17.4781C15.8889 17.1916 14.5727 17.0256 13.2324 16.9813ZM17.3366 22.4242C17.7149 21.3939 18.0324 20.3467 18.2887 19.2848C19.0378 19.5124 19.7747 19.7853 20.4979 20.1032C19.5821 21.0653 18.515 21.8486 17.3366 22.4242ZM21.4679 18.9336C20.5318 18.5001 19.5738 18.1377 18.5967 17.847C18.8802 16.3337 19.0423 14.7934 19.0808 13.2324H23.5106C23.3757 15.3047 22.6695 17.2661 21.4679 18.9336Z" fill="black"/>
</svg>
