<svg width="40" height="40" viewBox="0 0 40 40" fill="none" xmlns="http://www.w3.org/2000/svg">
<g clip-path="url(#clip0)">
<path d="M20.0071 0.00366232C12.0046 0.0024959 4.77209 4.77258 1.62233 12.1291L1.37305 12.2118L1.46969 12.5017C-2.67745 22.7301 2.25228 34.3837 12.4807 38.5309C14.8696 39.4995 17.4233 39.9967 20.0012 39.9953C31.0445 39.997 39.9984 31.0459 40 20.0025C40.0017 8.95913 31.0505 0.00524533 20.0071 0.00366232ZM35.6916 30.0811L34.6648 29.0549V26.6648C34.666 26.5616 34.6431 26.4596 34.5981 26.3668L31.9987 21.1752V18.6664C31.9987 18.4437 31.8875 18.2355 31.7021 18.1119L29.7025 16.7788C29.5458 16.6742 29.3521 16.6408 29.1693 16.6869L26.7204 17.2987L22.6073 15.5338L22.0414 11.5693L23.6098 10.0016H26.9764L28.1095 11.7046C28.2118 11.8577 28.373 11.9618 28.5547 11.9918L32.5539 12.6584C32.661 12.6764 32.7709 12.6676 32.8738 12.633L36.5571 11.4053C39.6463 17.3336 39.3159 24.4639 35.6916 30.0811ZM32.9425 6.57163L31.8587 7.29414L28.8373 6.6896L26.8771 6.03707C26.7571 5.99633 26.628 5.99116 26.5052 6.02241L24.027 6.64161L22.9406 6.27969L23.7457 4.66936H25.9999C26.1033 4.66944 26.2053 4.64553 26.2979 4.59937L28.6041 3.44628C30.1922 4.27527 31.6533 5.32772 32.9425 6.57163ZM12.7007 2.82507L14.3004 3.89152C14.379 3.94384 14.4678 3.97883 14.561 3.99416L17.791 4.53272L17.4757 5.47586L15.7927 6.03774C15.642 6.08789 15.5141 6.19021 15.4321 6.32635L13.5179 9.51635L10.4432 11.3613L5.91077 12.0085C5.58226 12.0549 5.33797 12.3359 5.33756 12.6677V14.6673C5.33756 14.8441 5.40787 15.0135 5.53285 15.1385L6.67061 16.2763V17.4214L3.89786 15.5724L2.89206 12.555C4.80567 8.18262 8.31302 4.70335 12.7007 2.82507ZM10.8031 24.6785L7.79038 24.0753L6.67061 21.8418V20.2754L9.1541 17.792L10.0732 19.6309C10.1861 19.8569 10.4172 19.9996 10.6698 19.9995H14.9582L16.7638 23.0089C16.8843 23.2094 17.1011 23.332 17.3351 23.3321H19.188L18.7214 25.6696L16.198 28.1931C16.0727 28.318 16.0023 28.4875 16.002 28.6644V30.3307L13.6025 32.1303C13.4347 32.2562 13.3359 32.4537 13.3359 32.6635V35.071L12.5067 34.7964L11.3363 31.869V25.3317C11.3364 25.0149 11.1134 24.7418 10.8031 24.6785ZM8.7995 34.9248C2.51506 30.21 -0.142638 22.0637 2.15222 14.55L2.7061 16.211C2.75276 16.3515 2.84491 16.4726 2.96805 16.5549L6.29069 18.7698L5.53285 19.5283C5.40787 19.6532 5.33756 19.8227 5.33756 19.9995V21.9991C5.33747 22.1025 5.36138 22.2045 5.40754 22.297L6.7406 24.9631C6.83291 25.1473 7.00513 25.2784 7.20717 25.3184L10.0066 25.8776V31.997C10.0065 32.0816 10.0226 32.1656 10.0539 32.2443L11.387 35.5769C11.46 35.759 11.6094 35.8997 11.7955 35.9615L13.7951 36.628C13.862 36.6507 13.9319 36.6624 14.0024 36.6627C14.3705 36.6627 14.669 36.3643 14.669 35.9962V32.9968L17.0685 31.1972C17.2363 31.0713 17.3351 30.8737 17.3351 30.6639V28.9403L19.8059 26.4695C19.8988 26.3764 19.9621 26.2579 19.9878 26.1289L20.6544 22.7962C20.7265 22.4352 20.4924 22.0841 20.1314 22.012C20.0885 22.0034 20.0449 21.9991 20.0012 21.9991H17.7123L15.9067 18.9897C15.7862 18.7892 15.5694 18.6665 15.3355 18.6664H11.0817L9.9366 16.3689C9.8407 16.1771 9.65841 16.0432 9.4467 16.009C9.23508 15.9724 9.01904 16.0422 8.86882 16.1956L8.00367 17.0574V16.0003C8.00367 15.8235 7.93335 15.6541 7.80838 15.5291L6.67061 14.3913V13.2456L10.7644 12.661C10.8523 12.6483 10.9369 12.6181 11.013 12.5724L14.3457 10.5728C14.4392 10.5166 14.5175 10.4383 14.5736 10.3448L16.4466 7.22349L18.2122 6.63428C18.4116 6.56888 18.5681 6.41249 18.6335 6.21304L19.3 4.21345C19.4155 3.86394 19.2258 3.48694 18.8762 3.37146C18.844 3.3608 18.8109 3.35263 18.7774 3.34697L14.9196 2.70377L14.2417 2.25186C18.4361 0.886645 22.979 1.05561 27.0604 2.72843L25.8426 3.3363H23.3338C23.08 3.33488 22.8474 3.47785 22.7339 3.70489L21.4009 6.371C21.2367 6.70043 21.3706 7.10068 21.7 7.2649C21.7281 7.2789 21.7571 7.29089 21.7868 7.30081L23.7864 7.96734C23.9064 8.00808 24.0355 8.01324 24.1583 7.982L26.6365 7.3628L28.4521 7.96734C28.4781 7.97667 28.5048 7.98383 28.5321 7.98866L31.8647 8.65519C32.038 8.69052 32.2183 8.65503 32.3653 8.55655L33.8823 7.54476C34.6289 8.37633 35.2998 9.27281 35.8872 10.2235L32.6079 11.3166L29.0573 10.7248L27.8842 8.96513C27.7612 8.78075 27.5546 8.66961 27.333 8.66852H23.3338C23.157 8.66852 22.9876 8.73884 22.8626 8.86382L20.863 10.8634C20.7145 11.0118 20.6446 11.2215 20.6744 11.4293L21.3409 16.095C21.3745 16.3257 21.5261 16.5221 21.7408 16.6129L26.4065 18.6124C26.5401 18.6704 26.6893 18.6823 26.8304 18.6464L29.2106 18.0512L30.6656 19.023V21.3325C30.6645 21.4357 30.6873 21.5377 30.7323 21.6305L33.3317 26.8221V29.3309C33.3317 29.5077 33.4021 29.6771 33.527 29.8021L34.9214 31.1972C28.7374 39.4399 17.0422 41.1088 8.7995 34.9248Z" fill="black"/>
</g>
<defs>
<clipPath id="clip0">
<rect width="40" height="40" fill="white"/>
</clipPath>
</defs>
</svg>
